<svg width="358" height="358" viewBox="0 0 358 358" fill="none" xmlns="http://www.w3.org/2000/svg">
<path d="M168 6.80002C162.533 7.46669 153.867 9.20002 148.667 10.6667L139.333 13.2L148.667 12.2667C164.133 10.6667 189.467 11.4667 201.467 13.8667C244 22.2667 282.4 45.8667 307.333 78.8C316.533 90.9334 317.067 91.2 311.467 80.6667C284.4 30.2667 224.8 -0.39998 168 6.80002Z" fill="url(#paint0_linear_4_172)"/>
<path d="M155.333 16.8C136.533 19.3333 129.733 20.8 118.667 24.2666C71.3334 39.3333 33.8667 74.1333 13.8667 121.467C7.60002 136.267 8.13335 137.467 15.0667 123.867C23.3334 107.333 34.5334 92.5333 49.8667 77.6C84.8 43.7333 126.933 26.6666 176 26.6666C212.8 26.6666 245.6 36.2666 274 55.4666C285.467 63.2 283.067 59.8666 270.533 50.5333C241.867 29.3333 210 18 175.333 16.8C166.533 16.5333 157.6 16.4 155.333 16.8ZM188.667 21.2C192.4 21.8666 187.333 22.4 171.333 22.9333C148.267 23.8666 135.733 25.8666 117.333 31.8666C107.867 35.0666 75.6 50.5333 74.9334 52.2666C74.6667 52.8 73.8667 53.3333 73.2 53.3333C68.4 53.3333 83.7334 43.2 100.667 35.2C112.933 29.3333 127.467 24.8 142.667 21.8666C152.4 20.1333 180.533 19.6 188.667 21.2Z" fill="url(#paint1_linear_4_172)"/>
<path d="M18.5424 107.634C25.9955 96.9787 32.8931 86.5593 40.3784 76.6177C54.2071 58.2512 72.4905 45.4977 92.3887 35.6611C111.606 26.1611 131.528 18.2843 153.503 18.464C165.399 18.5613 177.629 15.6985 189.126 17.7303C205.658 20.6519 222.146 25.5462 237.738 31.9894C250.948 37.4484 262.917 46.1984 275.295 53.7412C277.581 55.1341 279.196 57.715 280.9 60.6576C233.671 30.9996 183.271 22.0106 129.958 36.1026C76.5017 50.2323 37.2195 83.9653 10.3764 133.81C6.9931 129.414 9.89628 120.244 18.5424 107.634Z" fill="url(#paint2_linear_4_172)"/>
<path d="M74.9333 80.5333C69.6 89.7333 65.3333 97.4667 65.3333 97.8667C65.3333 98.2667 98.5333 98.6667 139.067 98.6667H212.933L218.667 101.733C226.133 105.6 229.333 111.6 229.333 121.733C229.333 132 226.933 137.2 217.733 146.8C208.533 156.533 193.733 166.533 174.933 175.867C167.333 179.733 161.333 183.333 161.6 183.867C161.867 184.533 167.333 196.533 173.867 210.533L185.733 236H211.733C231.867 236 237.467 235.6 236.933 234.4C236.533 233.467 231.067 221.733 224.8 208.267C218.533 194.933 213.333 183.6 213.333 183.333C213.333 182.933 214.133 182.667 215.2 182.667C218.133 182.667 245.2 168.8 252.667 163.467C264.267 155.2 275.867 142.667 280.4 133.467C284.133 125.867 284.667 123.467 284.667 114C284.667 105.2 284 102 281.067 95.7333C276.533 85.8667 268.133 78 256.667 72.4C239.867 64.4 234.533 64 155.467 64H84.5333L74.9333 80.5333Z" fill="url(#paint3_linear_4_172)"/>
<path d="M130.133 125.6C121.467 139.6 52.1333 261.733 50.9333 265.2C46.9333 276.8 50.5333 286.667 60.8 292L67.2 295.333L162.8 295.733L258.267 296.133L269.067 277.733L279.733 259.333L189.733 258.933C114.4 258.667 99.8666 258.4 100.4 256.8C101.067 255.2 168.933 136.933 174.933 126.933L177.6 122.667H154.8C132.667 122.667 132 122.8 130.133 125.6Z" fill="url(#paint4_linear_4_172)"/>
<path d="M335.2 136.4C355.733 202.133 330.8 279.067 275.467 321.067C264.933 328.933 264.8 329.867 274.933 323.733C313.2 300.533 337.067 267.2 346 224.667C350.667 202.667 348.4 170.933 340.8 148.267C337.867 139.733 333.067 129.467 335.2 136.4Z" fill="url(#paint5_linear_4_172)"/>
<path d="M332.8 199.333C329.733 218.533 318.133 245.733 304.4 266.533C295.067 280.533 272.533 303.333 258.4 313.067C236.8 327.867 209.733 338.8 184.133 343.2C168.533 345.867 140.4 345.867 126 343.333C120.267 342.267 115.2 341.6 114.933 341.867C114.267 342.667 135.067 347.867 145.333 349.467C158.133 351.467 192.267 350.267 204 347.333C255.067 334.933 295.467 303.2 318 257.6C327.2 239.067 335.733 207.067 334.4 196.267C334 193.6 333.6 194.4 332.8 199.333Z" fill="url(#paint6_linear_4_172)"/>
<defs>
<linearGradient id="paint0_linear_4_172" x1="290.498" y1="85.0322" x2="249.689" y2="-25.4989" gradientUnits="userSpaceOnUse">
<stop stop-color="#C9256B"/>
<stop offset="1" stop-color="#74107C"/>
</linearGradient>
<linearGradient id="paint1_linear_4_172" x1="243.357" y1="128.8" x2="189.417" y2="-30.8179" gradientUnits="userSpaceOnUse">
<stop stop-color="#C9256B"/>
<stop offset="1" stop-color="#74107C"/>
</linearGradient>
<linearGradient id="paint2_linear_4_172" x1="242.861" y1="129.252" x2="188.922" y2="-30.3655" gradientUnits="userSpaceOnUse">
<stop stop-color="#C9256B"/>
<stop offset="1" stop-color="#74107C"/>
</linearGradient>
<linearGradient id="paint3_linear_4_172" x1="253.979" y1="229.286" x2="136.968" y2="39.5954" gradientUnits="userSpaceOnUse">
<stop stop-color="#C9256B"/>
<stop offset="1" stop-color="#74107C"/>
</linearGradient>
<linearGradient id="paint4_linear_4_172" x1="247.497" y1="289.362" x2="131.701" y2="93.8392" gradientUnits="userSpaceOnUse">
<stop stop-color="#C9256B"/>
<stop offset="1" stop-color="#74107C"/>
</linearGradient>
<linearGradient id="paint5_linear_4_172" x1="337.091" y1="320.179" x2="214.904" y2="255.218" gradientUnits="userSpaceOnUse">
<stop stop-color="#C9256B"/>
<stop offset="1" stop-color="#74107C"/>
</linearGradient>
<linearGradient id="paint6_linear_4_172" x1="303.81" y1="344.378" x2="202.983" y2="163.564" gradientUnits="userSpaceOnUse">
<stop stop-color="#C9256B"/>
<stop offset="1" stop-color="#74107C"/>
</linearGradient>
</defs>
</svg>
