<?xml version="1.0" standalone="no"?>
<!DOCTYPE svg PUBLIC "-//W3C//DTD SVG 20010904//EN"
 "http://www.w3.org/TR/2001/REC-SVG-20010904/DTD/svg10.dtd">
<svg version="1.0" xmlns="http://www.w3.org/2000/svg"
 width="268.000000pt" height="268.000000pt" viewBox="0 0 268.000000 268.000000"
 preserveAspectRatio="xMidYMid meet">

<g transform="translate(0.000000,268.000000) scale(0.100000,-0.100000)"
fill="#000000" stroke="none">
<path d="M1260 2629 c-41 -5 -106 -18 -145 -29 l-70 -19 70 7 c116 12 306 6
396 -12 319 -63 607 -240 794 -487 69 -91 73 -93 31 -14 -203 378 -650 608
-1076 554z"/>
<path d="M562 2076 c-40 -69 -72 -127 -72 -130 0 -3 249 -6 553 -6 l554 0 43
-23 c56 -29 80 -74 80 -150 0 -77 -18 -116 -87 -188 -69 -73 -180 -148 -321
-218 -57 -29 -102 -56 -100 -60 2 -5 43 -95 92 -200 l89 -191 195 0 c151 0
193 3 189 12 -3 7 -44 95 -91 196 -47 100 -86 185 -86 187 0 3 6 5 14 5 22 0
225 104 281 144 87 62 174 156 208 225 28 57 32 75 32 146 0 66 -5 90 -27 137
-34 74 -97 133 -183 175 -126 60 -166 63 -759 63 l-532 0 -72 -124z"/>
<path d="M976 1738 c-65 -105 -585 -1021 -594 -1047 -30 -87 -3 -161 74 -201
l48 -25 717 -3 716 -3 81 138 80 138 -675 3 c-565 2 -674 4 -670 16 5 12 514
899 559 974 l20 32 -171 0 c-166 0 -171 -1 -185 -22z"/>
<path d="M2496 1185 c-23 -144 -110 -348 -213 -504 -70 -105 -239 -276 -345
-349 -162 -111 -365 -193 -557 -226 -117 -20 -328 -20 -436 -1 -43 8 -81 13
-83 11 -5 -6 151 -45 228 -57 96 -15 352 -6 440 16 383 93 686 331 855 673 69
139 133 379 123 460 -3 20 -6 14 -12 -23z"/>
</g>
</svg>
